# AST/ASF file generated using VICON BodyLanguage
# -----------------------------------------------
:version 1.10
:name VICON
:units
  mass 1.0
  length 0.45
  angle deg
:documentation
   .ast/.asf automatically generated from VICON data using
   VICON BodyBuilder and BodyLanguage model FoxedUp or BRILLIANT.MOD
:root
   order TX TY TZ RX RY RZ
   axis XYZ
   position 0 0 0  
   orientation 0 0 0 
:bonedata
  begin
     id 1 
     name lhipjoint
     direction 0.707368 -0.647095 0.284426 
     length 2.60678 
     axis 0 0 0  XYZ
  end
  begin
     id 2 
     name lfemur
     direction 0.34202 -0.939693 0  
     length 6.63812  
     axis 0 0 20  XYZ
    dof rx ry rz
    limits (-160.0 20.0)
           (-70.0 70.0)
           (-60.0 70.0)
  end
  begin
     id 3 
     name ltibia
     direction 0.34202 -0.939693 0   
     length 7.51178   
     axis 0 0 20   XYZ
    dof rx
    limits (-10.0 170.0)
  end
  begin
     id 4 
     name lfoot
     direction 0.121251 -0.333133 0.935051   
     length 1.83716   
     axis -90 7.62852e-016 20   XYZ
    dof rx rz
    limits (-45.0 90.0)
           (-70.0 20.0)
  end
  begin
     id 5 
     name ltoes
     direction 1.53611e-011 -4.21962e-011 1   
     length 0.916133   
     axis -90 7.62852e-016 20   XYZ
    dof rx
    limits (-90.0 20.0)
  end
  begin
     id 6 
     name rhipjoint
     direction -0.692419 -0.660507 0.290321   
     length 2.55385  
     axis 0 0 0  XYZ 
  end
  begin
     id 7 
     name rfemur
     direction -0.34202 -0.939693 0   
     length 7.29079   
     axis 0 0 -20   XYZ
    dof rx ry rz
    limits (-160.0 20.0)
           (-70.0 70.0)
           (-70.0 60.0)
  end
  begin
     id 8 
     name rtibia
     direction -0.34202 -0.939693 0   
     length 7.47143   
     axis 0 0 -20   XYZ
    dof rx
    limits (-10.0 170.0)
 end
 begin
     id 9 
     name rfoot
     direction -0.119907 -0.329441 0.936532   
     length 1.79439  
     axis -90 -7.62852e-016 -20   XYZ
    dof rx rz
    limits (-45.0 90.0)
           (-20.0 70.0)
  end
  begin
     id 10 
     name rtoes
     direction -1.53571e-011 -4.21961e-011 1   
     length 0.896039   
     axis -90 -7.62852e-016 -20   XYZ
    dof rx
    limits (-90.0 20.0)
  end
  begin
     id 11 
     name lowerback
     direction 0.0367721 0.992912 -0.113016   
     length 1.73542   
     axis 0 0 0   XYZ
    dof rx ry rz
    limits (-20.0 45.0)
           (-30.0 30.0)
           (-30.0 30.0)
  end
  begin
     id 12 
     name upperback
     direction -0.000314626 0.990678 0.136227   
     length 1.7514   
     axis 0 0 0   XYZ
    dof rx ry rz
    limits (-20.0 45.0)
           (-30.0 30.0)
           (-30.0 30.0)
  end
  begin
     id 13 
     name thorax
     direction -0.0226159 0.981151 0.191917   
     length 1.71471   
     axis 0 0 0   XYZ
    dof rx ry rz
    limits (-20.0 45.0)
           (-30.0 30.0)
           (-30.0 30.0)
  end
  begin
     id 14 
     name lowerneck
     direction 0.0219333 0.998071 0.0580739   
     length 1.65882   
     axis 0 0 0   XYZ
    dof rx ry rz
    limits (-20.0 45.0)
           (-30.0 30.0)
           (-30.0 30.0)
  end
  begin
     id 15 
     name upperneck
     direction 0.0384529 0.980058 -0.194957   
     length 1.6612   
     axis 0 0 0   XYZ
    dof rx ry rz
    limits (-20.0 45.0)
           (-30.0 30.0)
           (-30.0 30.0)
  end
  begin
     id 16
     name head
     direction 0.00592123 0.997421 -0.0715234  
     length 1.68077  
     axis 0 0 0   XYZ
    dof rx ry rz
    limits (-20.0 45.0)
           (-30.0 30.0)
           (-30.0 30.0)
  end
  begin
     id 17 
     name lclavicle
     direction 0.904803 0.417826 0.0821728  
     length 3.42227  
     axis 0 0 0   XYZ
    dof ry rz
    limits (-20.0 10.0)
           (0.0 20.0)
  end
  begin
     id 18 
     name lhumerus
     direction 1 -4.48965e-011 -2.68786e-027   
     length 5.11878   
     axis -180 -30 -90   XYZ
    dof rx ry rz
    limits (-60.0 90.0)
           (-90.0 90.0)
           (-90.0 90.0)
  end
  begin
     id 19
     name lradius
     direction 1 -4.48965e-011 2.61168e-028   
     length 3.59971   
     axis -180 -30 -90   XYZ
    dof rx
    limits (-10.0 170.0)
  end
  begin
     id 20
     name lwrist
     direction 1 -4.48965e-011 1.58672e-027   
     length 1.79985   
     axis -1.65735e-015 90 90   XYZ
    dof ry
    limits (-180.0 0.0)
 end
  begin
     id 21 
     name lhand
     direction 1 -4.48942e-011 3.17344e-027   
     length 0.62877   
     axis -2.02492e-015 90 90   XYZ
    dof rx rz
    limits (-90.0 90.0)
           (-45.0 45.0)
  end
  begin
     id 22 
     name lfingers
     direction 1 -4.49011e-011 6.34687e-027   
     length 0.506931   
     axis -4.04985e-015 90 90   XYZ
    dof rx
    limits (0.0 90.0)
  end
  begin
     id 23
     name lthumb
     direction 0.707107 -6.34982e-011 0.707107   
     length 0.727854   
     axis -90 45 2.85299e-015   XYZ
    dof rx rz
    limits (-45.0 45.0)
           (-45.0 45.0)
  end
  begin
     id 24 
     name rclavicle
     direction -0.945647 0.32488 0.0143075   
     length 3.52737  
     axis 0 0 0   XYZ 
    dof ry rz
    limits (-10.0 20.0)
           (-20.0 0.0)
  end
  begin
     id 25 
     name rhumerus
     direction -1 -4.48962e-011 1.92182e-027  
     length 5.4902   
     axis -180 30 90   XYZ
    dof rx ry rz
    limits (-90.0 60.0)
           (-90.0 90.0)
           (-90.0 90.0)
  end
  begin
     id 26 
     name rradius
     direction -1 -4.48967e-011 -5.97193e-028   
     length 3.20659   
     axis -180 30 90   XYZ
    dof rx
    limits (-10.0 170.0)
  end
  begin
     id 27 
     name rwrist
     direction -1 -4.48964e-011 1.58672e-027   
     length 1.6033   
     axis -1.65735e-015 -90 -90   XYZ
    dof ry
    limits (-180.0 0.0)
  end
  begin
     id 28
     name rhand
     direction -1 -4.49006e-011 3.17344e-027   
     length 0.691885   
     axis -2.02492e-015 -90 -90   XYZ
    dof rx rz
    limits (-90.0 90.0)
           (-45.0 45.0)
  end
  begin
     id 29
     name rfingers
     direction -1 -4.48908e-011 6.34687e-027   
     length 0.557815   
     axis -4.04985e-015 -90 -90   XYZ
    dof rx
    limits (0.0 90.0)
  end
  begin
     id 30
     name rthumb
     direction -0.707107 -6.34999e-011 0.707107   
     length 0.800915   
     axis -90 -45 -2.85299e-015   XYZ
    dof rx rz
    limits (-45.0 45.0)
           (-45.0 45.0)
  end
:hierarchy
  begin
    root lhipjoint rhipjoint lowerback
    lhipjoint lfemur
    lfemur ltibia
    ltibia lfoot
    lfoot ltoes
    rhipjoint rfemur
    rfemur rtibia
    rtibia rfoot
    rfoot rtoes
    lowerback upperback
    upperback thorax
    thorax lowerneck lclavicle rclavicle
    lowerneck upperneck
    upperneck head
    lclavicle lhumerus
    lhumerus lradius
    lradius lwrist
    lwrist lhand lthumb
    lhand lfingers
    rclavicle rhumerus
    rhumerus rradius
    rradius rwrist
    rwrist rhand rthumb
    rhand rfingers
  end

#!OML:ASF I:\Actors\actors\Patient Classification 1\Patient 1\Session 1\Subject1.ASF
:FULLY-SPECIFIED
:DEGREES
62
root 0.93337 17.4542 8.71437 10.5331 -1.59267 -9.88531
lowerback -4.01 -0.125729 6.11081
upperback -9.59839 0.0214024 2.5247
thorax -7.86486 -0.332453 -0.745313
lowerneck -2.96155 -12.9189 -12.0204
upperneck 17.5035 -19.2157 12.4784
head 8.29115 -9.17656 4.15706
rclavicle 1.11319e-014 -5.1684e-015
rhumerus -46.427 -27.2235 -65.8648
rradius 26.0873
rwrist 30.2411
rhand 10.3863 -34.8965
rfingers 7.12502
rthumb 35.4926 -61.3361
lclavicle 1.11319e-014 -5.1684e-015
lhumerus -52.3216 41.6125 53.0389
lradius 17.9593
lwrist -39.391
lhand -16.951 -10.9775
lfingers 7.12502
lthumb 9.2826 18.7981
rfemur -5.96351 25.8487 25.7504
rtibia 3.40625
rfoot -11.3632 -22.65
rtoes -3.2554
lfemur 2.93786 -42.6855 -8.59928
ltibia -4.3561
lfoot -20.6266 50.7575
ltoes 8.94836
63
root 0.93259 17.4543 8.7152 10.5557 -1.59576 -9.86313
lowerback -4.03115 -0.116755 6.12497
upperback -9.5779 0.0301439 2.51639
thorax -7.82961 -0.328424 -0.762757
lowerneck -3.23236 -12.8134 -11.7759
upperneck 17.5906 -19.0283 12.2778
head 8.29699 -9.07241 4.0654
rclavicle -1.71949e-014 5.00937e-014
rhumerus -46.3622 -26.9403 -66.1165
rradius 26.3071
rwrist 29.779
rhand 10.3378 -35.0079
rfingers 7.12502
rthumb 35.4466 -61.4585
lclavicle -1.71949e-014 5.00937e-014
lhumerus -52.9818 42.4136 51.8848
lradius 17.7464
lwrist -40.2118
lhand -16.873 -10.2678
lfingers 7.12502
lthumb 9.35785 19.5045
rfemur -5.98068 25.8857 25.7107
rtibia 3.38585
rfoot -11.418 -22.6596
rtoes -2.87716
lfemur 2.92241 -42.7456 -8.62305
ltibia -4.34546
lfoot -20.7743 50.8036
ltoes 9.1705
64
root 0.932137 17.4535 8.71759 10.5769 -1.60119 -9.83881
lowerback -4.08757 -0.10265 6.15133
upperback -9.5305 0.0412075 2.50587
thorax -7.74422 -0.322668 -0.790145
lowerneck -3.58042 -12.6366 -11.54
upperneck 17.6455 -18.7568 12.2104
head 8.31041 -8.91653 4.02526
rclavicle 3.45388e-014 -5.20816e-014
rhumerus -46.2062 -26.5524 -66.4985
rradius 26.5959
rwrist 29.0431
rhand 10.2143 -35.2192
rfingers 7.12502
rthumb 35.3296 -61.6976
lclavicle 3.45388e-014 -5.20816e-014
lhumerus -53.5675 43.2604 50.7941
lradius 17.5603
lwrist -40.7228
lhand -16.6984 -8.82364
lfingers 7.12502
lthumb 9.52635 20.941
rfemur -5.97422 25.9237 25.6751
rtibia 3.34985
rfoot -11.4636 -22.6497
rtoes -2.66693
lfemur 2.95526 -42.8503 -8.68047
ltibia -4.36509
lfoot -20.9071 50.8886
ltoes 9.38931
65
root 0.931035 17.4525 8.71825 10.6077 -1.59877 -9.82966
lowerback -4.11736 -0.0677339 6.18681
upperback -9.49353 0.0832871 2.49617
thorax -7.68413 -0.302752 -0.822107
lowerneck -3.85584 -12.4136 -11.2483
upperneck 17.5559 -18.415 12.1542
head 8.24986 -8.73003 3.99727
rclavicle -1.16289e-014 9.93923e-015
rhumerus -45.9847 -25.8819 -67.1243
rradius 27.0352
rwrist 27.6902
rhand 9.93491 -35.7077
rfingers 7.12502
rthumb 35.0646 -62.2487
lclavicle -1.16289e-014 9.93923e-015
lhumerus -54.4732 44.4507 49.1711
lradius 17.2591
lwrist -41.135
lhand -16.7592 -7.53411
lfingers 7.12502
lthumb 9.46764 22.2332
rfemur -6.0003 25.9715 25.651
rtibia 3.34353
rfoot -11.5165 -22.6763
rtoes -2.45651
lfemur 2.91683 -42.8523 -8.65622
ltibia -4.37332
lfoot -20.9341 50.8895
ltoes 9.43277
66
root 0.9301 17.4521 8.71703 10.6202 -1.57465 -9.85662
lowerback -4.08751 -0.0164335 6.2666
upperback -9.45848 0.153096 2.48638
thorax -7.65978 -0.272986 -0.878978
lowerneck -4.03644 -12.1618 -11.101
upperneck 17.3584 -18.0296 12.1779
head 8.1542 -8.53286 4.02855
rclavicle 9.93923e-015 7.95139e-016
rhumerus -45.7629 -24.7119 -68.179
rradius 27.8368
rwrist 25.5301
rhand 9.40198 -36.5993
rfingers 7.12502
rthumb 34.5589 -63.2572
lclavicle 9.93923e-015 7.95139e-016
lhumerus -56.0685 46.217 46.5218
lradius 16.8149
lwrist -41.6318
lhand -17.189 -7.48413
lfingers 7.12502
lthumb 9.05297 22.3016
rfemur -6.04332 25.9579 25.6758
rtibia 3.37355
rfoot -11.5417 -22.7028
rtoes -2.3189
lfemur 2.86557 -42.8522 -8.58569
ltibia -4.35038
lfoot -20.9023 50.8837
ltoes 9.39489
67
root 0.929738 17.4516 8.71485 10.6193 -1.53934 -9.88659
lowerback -4.01754 0.0275927 6.37256
upperback -9.40786 0.216235 2.47955
thorax -7.64217 -0.248144 -0.94712
lowerneck -4.26652 -11.8937 -10.6192
upperneck 16.9725 -17.5922 12.0408
head 7.95234 -8.30475 3.96429
rclavicle 1.45113e-014 -1.07344e-014
rhumerus -45.522 -22.7347 -69.8782
rradius 29.1832
rwrist 22.6365
rhand 8.18765 -37.862
rfingers 7.12502
rthumb 33.4054 -64.7758
lclavicle 1.45113e-014 -1.07344e-014
lhumerus -57.413 47.5997 44.4117
lradius 16.5734
lwrist -40.6843
lhand -17.8797 -7.91323
lfingers 7.12502
lthumb 8.38645 21.9003
rfemur -6.10209 25.8992 25.7108
rtibia 3.46069
rfoot -11.5564 -22.6878
rtoes -2.38457
lfemur 2.81109 -42.8541 -8.51542
ltibia -4.31118
lfoot -20.8455 50.8698
ltoes 9.28196
68
root 0.929021 17.4508 8.7134 10.6223 -1.51502 -9.87787
lowerback -3.97209 0.0681036 6.44244
upperback -9.34105 0.27172 2.47986
thorax -7.59214 -0.223116 -0.988001
lowerneck -4.50279 -11.5306 -10.415
upperneck 16.5306 -17.0377 12.1462
head 7.77073 -8.0211 4.03275
rclavicle -4.42296e-015 -2.06736e-014
rhumerus -45.3076 -19.8045 -72.2541
rradius 31.1092
rwrist 19.4658
rhand 5.77277 -39.1898
rfingers 7.12502
rthumb 31.1068 -66.5708
lclavicle -4.42296e-015 -2.06736e-014
lhumerus -56.5058 47.053 45.7877
lradius 16.9852
lwrist -35.8984
lhand -18.7556 -7.40577
lfingers 7.12502
lthumb 7.54104 22.4398
rfemur -6.13695 25.9166 25.701
rtibia 3.51707
rfoot -11.564 -22.7451
rtoes -2.48592
lfemur 2.73004 -42.7664 -8.4686
ltibia -4.26904
lfoot -20.6888 50.7885
ltoes 9.01744
69
root 0.927567 17.4504 8.71367 10.6039 -1.50853 -9.86096
lowerback -3.95796 0.0857156 6.47061
upperback -9.23172 0.292168 2.50511
thorax -7.47878 -0.209183 -0.979401
lowerneck -4.88562 -11.1951 -9.96185
upperneck 16.1223 -16.4997 12.0296
head 7.5885 -7.73936 3.97977
rclavicle 2.15184e-014 -3.61788e-014
rhumerus -45.2359 -16.132 -75.136
rradius 33.6197
rwrist 16.5972
rhand 2.48137 -40.3459
rfingers 7.12502
rthumb 27.9649 -68.2829
lclavicle 2.15184e-014 -3.61788e-014
lhumerus -51.4216 42.3975 53.9592
lradius 18.8104
lwrist -22.5137
lhand -21.6764 -2.45467
lfingers 7.12502
lthumb 4.72124 27.4727
rfemur -6.11543 25.9253 25.6932
rtibia 3.51331
rfoot -11.5482 -22.7731
rtoes -2.68454
lfemur 2.72048 -42.7169 -8.48618
ltibia -4.22853
lfoot -20.6328 50.7354
ltoes 8.89742
70
root 0.926475 17.45 8.71333 10.5743 -1.50197 -9.86136
lowerback -3.93146 0.0822524 6.51657
upperback -9.07773 0.283056 2.53467
thorax -7.32584 -0.209272 -0.976042
lowerneck -5.33182 -10.837 -9.4385
upperneck 15.708 -15.9241 11.8394
head 7.4035 -7.43894 3.89235
rclavicle 2.92213e-014 -3.10104e-014
rhumerus -45.3655 -12.1757 -78.2126
rradius 36.6684
rwrist 14.2807
rhand -1.04716 -41.013
rfingers 7.12502
rthumb 24.587 -69.4541
lclavicle 2.92213e-014 -3.10104e-014
lhumerus -47.7263 37.0584 61.1476
lradius 21.5312
lwrist -7.83588
lhand -25.6064 1.30982
lfingers 7.12502
lthumb 0.925882 31.2876
rfemur -6.09632 25.7641 25.7077
rtibia 3.51995
rfoot -11.4852 -22.6273
rtoes -3.04812
lfemur 2.74696 -42.7386 -8.52044
ltibia -4.17879
lfoot -20.7202 50.7266
ltoes 8.95215
71
root 0.925891 17.4496 8.71142 10.5576 -1.52433 -9.84354
lowerback -3.90206 0.0894319 6.57282
upperback -8.92045 0.286417 2.53256
thorax -7.17043 -0.204992 -1.01203
lowerneck -5.66105 -10.3986 -8.81585
upperneck 15.1843 -15.2504 11.654
head 7.14974 -7.09441 3.80949
rclavicle 4.96962e-016 2.44505e-014
rhumerus -45.713 -8.20952 -81.3234
rradius 40.1676
rwrist 12.0207
rhand -4.92079 -41.0695
rfingers 7.12502
rthumb 20.8695 -69.967
lclavicle 4.96962e-016 2.44505e-014
lhumerus -45.4053 31.2892 67.3837
lradius 25.2806
lwrist 7.25762
lhand -27.806 0.939038
lfingers 7.12502
lthumb -1.19857 30.9154
rfemur -6.10898 25.6234 25.6859
rtibia 3.54175
rfoot -11.4045 -22.4709
rtoes -3.22161
lfemur 2.77219 -42.7973 -8.57648
ltibia -4.1434
lfoot -20.8705 50.7702
ltoes 9.16958
72
root 0.924223 17.4497 8.70821 10.5382 -1.59313 -9.81542
lowerback -3.88013 0.140065 6.60897
upperback -8.79015 0.346921 2.49595
thorax -7.03616 -0.173158 -1.07401
lowerneck -5.8086 -9.98836 -8.28119
upperneck 14.6241 -14.6401 11.5698
head 6.88137 -6.78701 3.77151
rclavicle -7.20594e-015 -1.70955e-014
rhumerus -46.3503 -4.52679 -84.3055
rradius 44.2402
rwrist 9.96137
rhand -8.25803 -41.5594
rfingers 7.12502
rthumb 17.6606 -70.7774
lclavicle -7.20594e-015 -1.70955e-014
lhumerus -44.3836 25.317 72.6127
lradius 29.9551
lwrist 21.1788
lhand -31.2977 5.09814
lfingers 7.12502
lthumb -4.57061 35.0288
rfemur -6.14007 25.6666 25.6558
rtibia 3.60678
rfoot -11.3787 -22.4547
rtoes -3.27347
lfemur 2.80086 -42.7681 -8.62649
ltibia -4.13679
lfoot -20.9701 50.7765
ltoes 9.38718
73
root 0.922282 17.4502 8.7031 10.4981 -1.6151 -9.86282
lowerback -3.82811 0.210224 6.74362
upperback -8.69069 0.438165 2.44551
thorax -6.95226 -0.134666 -1.20502
lowerneck -5.93481 -9.62807 -7.74147
upperneck 14.2054 -14.1149 11.438
head 6.66493 -6.52116 3.70478
rclavicle -1.54058e-015 0
rhumerus -47.2017 -1.34364 -87.0237
rradius 48.904
rwrist 8.44342
rhand -9.9951 -42.93
rfingers 7.12502
rthumb 15.9884 -72.2902
lclavicle -1.54058e-015 0
lhumerus -44.3096 18.6877 77.73
lradius 35.3593
lwrist 30.696
lhand -31.1806 2.55439
lfingers 7.12502
lthumb -4.45749 32.4875
rfemur -6.15232 25.6972 25.7374
rtibia 3.71386
rfoot -11.4561 -22.4776
rtoes -3.26087
lfemur 2.79689 -42.5937 -8.54789
ltibia -4.1335
lfoot -20.8658 50.6447
ltoes 9.25646
74
root 0.921467 17.4513 8.69631 10.4615 -1.59192 -9.92195
lowerback -3.77971 0.244567 6.92149
upperback -8.58609 0.482022 2.41458
thorax -6.86457 -0.121342 -1.33832
lowerneck -6.25101 -9.27547 -7.2223
upperneck 13.9964 -13.6043 11.2303
head 6.55023 -6.25565 3.60231
rclavicle 1.98785e-015 -2.42517e-014
rhumerus -48.0006 1.74063 -89.7274
rradius 53.9024
rwrist 6.15952
rhand -11.3774 -44.7583
rfingers 7.12502
rthumb 14.6569 -74.2203
lclavicle 1.98785e-015 -2.42517e-014
lhumerus -44.8888 12.3152 82.5137
lradius 41.3128
lwrist 36.3171
lhand -31.6169 2.25832
lfingers 7.12502
lthumb -4.87884 32.1822
rfemur -6.18065 25.6107 25.821
rtibia 3.82028
rfoot -11.5222 -22.4219
rtoes -3.25111
lfemur 2.73444 -42.364 -8.42061
ltibia -4.10877
lfoot -20.5912 50.453
ltoes 8.88328
